<svg width="16" height="19" viewBox="0 0 16 19" fill="none" xmlns="http://www.w3.org/2000/svg">
<path d="M1 19V15.95C0.7 15.6167 0.458333 15.2457 0.275 14.837C0.0916668 14.4283 0 13.9827 0 13.5V4C0 2.61667 0.641667 1.604 1.925 0.962001C3.20833 0.320001 5.23333 -0.000665629 8 1.03734e-06C10.8667 1.03734e-06 12.9167 0.308334 14.15 0.925001C15.3833 1.54167 16 2.56667 16 4V13.5C16 13.9833 15.9083 14.4293 15.725 14.838C15.5417 15.2467 15.3 15.6173 15 15.95V19H12V17H4V19H1ZM2 8H14V5H2V8ZM4.5 14C4.91667 14 5.271 13.854 5.563 13.562C5.855 13.27 6.00067 12.916 6 12.5C6 12.0833 5.854 11.729 5.562 11.437C5.27 11.145 4.916 10.9993 4.5 11C4.08333 11 3.729 11.146 3.437 11.438C3.145 11.73 2.99933 12.084 3 12.5C3 12.9167 3.146 13.271 3.438 13.563C3.73 13.855 4.084 14.0007 4.5 14ZM11.5 14C11.9167 14 12.271 13.854 12.563 13.562C12.855 13.27 13.0007 12.916 13 12.5C13 12.0833 12.854 11.729 12.562 11.437C12.27 11.145 11.916 10.9993 11.5 11C11.0833 11 10.729 11.146 10.437 11.438C10.145 11.73 9.99933 12.084 10 12.5C10 12.9167 10.146 13.271 10.438 13.563C10.73 13.855 11.084 14.0007 11.5 14Z" fill="black"/>
</svg>
